<svg xmlns="http://www.w3.org/2000/svg" viewBox="0 0 1024 1024" width="1024" height="1024">
  <path fill="#3A2A14" d="M645.1 116.0 C648.1 115.8 651.9 124.8 654.6 129.6 C657.4 134.4 659.5 139.6 661.4 144.8 C663.4 150.0 665.0 155.4 666.3 160.8 C667.7 166.3 668.9 171.8 669.6 177.5 C670.3 183.3 670.4 189.3 670.4 195.2 C670.4 201.1 669.2 207.2 669.6 212.9 C670.0 218.7 670.9 224.4 673.0 229.6 C675.1 234.7 679.3 239.0 682.3 243.8 C685.3 248.6 688.3 253.3 691.0 258.2 C693.7 263.1 696.2 268.1 698.6 273.1 C700.9 278.2 702.9 283.4 705.0 288.5 C707.1 293.7 709.3 298.8 711.2 304.0 C713.2 309.2 715.0 314.4 716.6 319.8 C718.3 325.1 719.6 330.6 721.0 336.0 C722.5 341.4 723.8 346.9 725.1 352.4 C726.4 357.8 727.9 363.3 728.9 368.8 C730.0 374.4 730.8 380.1 731.7 385.8 C732.5 391.4 733.3 397.1 734.1 402.8 C734.9 408.5 736.0 414.0 736.6 419.8 C737.1 425.6 737.1 431.6 737.4 437.5 C737.7 443.4 738.1 449.3 738.2 455.2 C738.3 461.2 738.2 467.3 738.2 473.3 C738.2 479.3 738.3 485.4 738.2 491.3 C738.1 497.3 737.8 503.2 737.4 509.0 C737.0 514.9 736.5 520.7 735.9 526.5 C735.4 532.3 734.7 538.0 734.2 543.8 C733.6 549.6 733.2 555.4 732.5 561.2 C731.8 566.9 730.8 572.5 730.0 578.2 C729.2 583.9 728.5 589.6 727.6 595.2 C726.6 600.8 725.4 606.4 724.3 611.9 C723.2 617.5 722.3 623.1 721.0 628.6 C719.8 634.1 718.3 639.5 717.0 645.0 C715.6 650.4 714.4 655.9 712.9 661.3 C711.4 666.7 709.6 672.0 708.0 677.3 C706.3 682.7 704.8 688.1 703.0 693.3 C701.2 698.6 699.2 703.8 697.2 709.0 C695.2 714.1 693.1 719.3 690.8 724.4 C688.6 729.5 686.2 734.5 683.8 739.5 C681.4 744.5 678.8 749.5 676.2 754.4 C673.6 759.4 670.9 764.3 668.1 769.1 C665.3 774.0 662.4 778.8 659.4 783.5 C656.4 788.3 653.3 793.1 650.0 797.7 C646.7 802.3 643.1 806.9 639.4 811.4 C635.7 815.9 631.9 820.3 628.0 824.7 C624.1 829.1 620.0 833.4 615.8 837.7 C611.7 842.0 607.4 846.5 603.1 850.5 C598.7 854.4 594.1 857.9 589.6 861.5 C585.1 865.1 580.5 868.6 575.9 871.9 C571.2 875.2 566.5 878.3 561.7 881.2 C556.9 884.1 552.0 886.9 547.0 889.4 C542.0 891.9 537.0 894.3 531.8 896.4 C526.7 898.4 521.3 900.0 515.9 901.5 C510.6 903.1 505.2 904.6 499.6 905.6 C494.0 906.5 488.0 907.0 482.2 907.2 C476.4 907.5 470.6 907.5 464.8 907.2 C459.0 907.0 453.0 906.7 447.5 905.6 C441.9 904.5 436.7 902.5 431.4 900.7 C426.2 898.8 421.0 896.9 416.0 894.5 C410.9 892.1 406.1 889.3 401.3 886.3 C396.5 883.3 391.9 880.1 387.3 876.5 C382.8 872.9 378.3 869.0 374.1 864.9 C369.9 860.8 365.7 856.3 361.9 851.9 C358.1 847.4 354.5 842.9 351.1 838.3 C347.7 833.7 344.6 829.0 341.6 824.2 C338.6 819.4 335.8 814.6 333.2 809.6 C330.5 804.7 328.2 799.7 325.8 794.6 C323.4 789.6 321.1 784.6 318.9 779.4 C316.7 774.3 314.7 769.1 312.8 763.9 C310.8 758.7 308.9 753.5 307.2 748.2 C305.5 742.9 304.0 737.5 302.5 732.1 C301.1 726.7 299.7 721.2 298.4 715.7 C297.2 710.2 295.8 704.8 294.8 699.2 C293.8 693.6 293.2 687.8 292.3 682.2 C291.5 676.5 290.6 670.9 289.9 665.1 C289.2 659.4 288.7 653.6 288.3 647.8 C287.8 641.9 287.6 636.0 287.4 630.0 C287.3 624.1 287.3 618.0 287.4 612.0 C287.6 606.0 288.0 600.2 288.3 594.3 C288.5 588.4 288.7 582.4 289.1 576.6 C289.5 570.7 290.0 564.9 290.7 559.2 C291.4 553.5 292.2 547.8 293.2 542.2 C294.1 536.6 295.3 531.0 296.4 525.5 C297.5 519.9 298.5 514.3 299.7 508.8 C300.9 503.3 302.4 497.9 303.8 492.4 C305.1 487.0 306.3 481.4 307.9 476.1 C309.4 470.7 311.3 465.5 313.1 460.2 C314.9 454.9 316.6 449.6 318.5 444.4 C320.3 439.1 322.2 433.9 324.2 428.7 C326.2 423.5 328.4 418.4 330.7 413.4 C333.0 408.3 335.6 403.3 338.1 398.3 C340.6 393.4 343.1 388.4 345.7 383.5 C348.4 378.6 351.1 373.7 353.9 368.8 C356.7 364.0 359.6 359.1 362.6 354.4 C365.6 349.6 368.6 344.8 371.9 340.2 C375.2 335.5 378.7 330.9 382.2 326.4 C385.6 321.8 389.1 317.2 392.8 312.7 C396.5 308.3 400.4 303.9 404.4 299.5 C408.4 295.1 412.4 290.7 416.6 286.5 C420.8 282.3 425.2 278.3 429.6 274.3 C434.0 270.3 438.4 266.5 442.8 262.7 C447.3 258.9 451.7 255.2 456.3 251.7 C460.9 248.2 465.6 245.0 470.3 241.8 C475.0 238.6 479.7 235.5 484.5 232.5 C489.2 229.5 494.0 226.5 498.9 223.8 C503.8 221.1 508.8 218.6 513.8 216.2 C518.8 213.8 523.8 211.4 529.0 209.2 C534.1 207.1 539.3 205.1 544.6 203.4 C549.9 201.6 556.3 201.8 560.7 198.7 C565.1 195.7 567.3 189.4 571.2 185.0 C575.0 180.6 579.3 176.5 583.6 172.6 C587.9 168.7 592.4 164.8 597.1 161.5 C601.7 158.3 606.7 155.8 611.5 152.8 C616.3 149.8 621.4 147.2 625.7 143.5 C629.9 139.8 633.7 135.2 637.0 130.6 C640.2 126.0 642.2 116.1 645.1 116.0Z"/>
  <path fill="#E9C984" d="M645.1 144.5 C647.0 144.5 649.4 154.8 651.0 160.2 C652.5 165.6 653.7 171.1 654.5 176.8 C655.3 182.5 655.7 188.5 655.7 194.4 C655.8 200.3 655.2 206.2 654.9 212.1 C654.6 218.0 652.5 224.6 654.1 229.9 C655.6 235.1 661.1 239.0 664.3 243.7 C667.4 248.5 670.2 253.3 673.0 258.2 C675.8 263.1 678.6 267.9 681.0 273.0 C683.5 278.0 685.5 283.2 687.6 288.3 C689.8 293.4 692.1 298.5 694.1 303.7 C696.1 308.9 697.7 314.3 699.3 319.6 C701.0 325.0 702.5 330.4 703.9 335.8 C705.3 341.3 706.7 346.7 708.0 352.2 C709.3 357.7 710.6 363.2 711.7 368.8 C712.8 374.3 713.6 380.0 714.5 385.7 C715.4 391.3 716.3 397.0 717.0 402.7 C717.6 408.5 718.1 414.4 718.6 420.2 C719.1 426.0 719.8 431.8 720.2 437.6 C720.6 443.3 720.9 448.8 721.0 454.6 C721.2 460.5 721.2 466.7 721.0 472.7 C720.9 478.7 720.4 484.5 720.2 490.5 C720.0 496.4 720.1 502.4 719.8 508.4 C719.5 514.3 719.1 520.1 718.6 526.0 C718.1 531.8 717.6 537.6 717.0 543.4 C716.3 549.1 715.7 554.9 714.9 560.6 C714.2 566.3 713.4 572.0 712.5 577.7 C711.6 583.3 710.6 589.0 709.6 594.6 C708.6 600.2 707.4 605.7 706.3 611.3 C705.3 616.9 704.3 622.5 703.1 628.0 C701.9 633.5 700.4 639.0 699.0 644.4 C697.6 649.9 696.4 655.4 694.8 660.8 C693.2 666.1 691.2 671.3 689.5 676.6 C687.8 682.0 686.2 687.3 684.3 692.6 C682.4 697.8 680.5 703.1 678.4 708.2 C676.2 713.3 673.7 718.3 671.4 723.4 C669.0 728.4 666.8 733.6 664.3 738.6 C661.9 743.6 659.3 748.5 656.5 753.4 C653.8 758.3 651.0 763.2 648.0 768.0 C645.0 772.8 641.9 777.5 638.7 782.2 C635.5 786.9 632.2 791.5 628.8 796.2 C625.4 800.8 622.0 805.4 618.3 809.9 C614.6 814.4 610.7 818.8 606.7 823.2 C602.6 827.5 598.2 831.9 593.9 836.0 C589.5 840.0 585.1 843.8 580.6 847.6 C576.2 851.4 571.7 855.2 567.1 858.6 C562.5 862.0 557.7 865.1 552.9 868.0 C548.1 870.9 543.2 873.7 538.2 876.1 C533.2 878.6 528.1 880.8 522.8 882.7 C517.6 884.6 512.3 886.3 506.8 887.6 C501.3 889.0 495.7 890.1 490.1 890.9 C484.4 891.7 478.5 892.5 472.7 892.5 C466.8 892.5 460.9 891.8 455.2 890.9 C449.6 889.9 444.1 888.6 438.9 886.8 C433.6 885.0 428.5 882.8 423.5 880.3 C418.5 877.8 413.6 875.0 408.9 871.9 C404.1 868.7 399.6 865.2 395.1 861.4 C390.7 857.6 386.2 853.5 382.1 849.2 C378.0 844.9 374.3 840.4 370.7 835.8 C367.1 831.3 363.7 826.7 360.6 821.9 C357.4 817.2 354.7 812.3 351.9 807.4 C349.2 802.5 346.7 797.6 344.2 792.5 C341.8 787.5 339.4 782.5 337.3 777.4 C335.1 772.2 333.3 766.9 331.4 761.7 C329.5 756.5 327.6 751.2 325.8 745.9 C324.1 740.6 322.4 735.3 320.9 729.9 C319.4 724.5 318.1 719.0 316.8 713.5 C315.6 708.0 314.7 702.3 313.6 696.7 C312.5 691.2 311.1 685.7 310.3 680.0 C309.5 674.3 309.2 668.4 308.7 662.6 C308.1 656.8 307.4 651.1 307.0 645.2 C306.6 639.3 306.4 633.4 306.2 627.5 C306.1 621.5 306.1 615.3 306.2 609.4 C306.4 603.4 306.8 597.5 307.0 591.6 C307.3 585.7 307.3 579.7 307.9 573.9 C308.4 568.1 309.5 562.5 310.3 556.8 C311.1 551.1 311.8 545.4 312.8 539.7 C313.7 534.1 314.6 528.5 315.7 522.9 C316.8 517.3 318.0 511.8 319.3 506.3 C320.6 500.8 321.9 495.3 323.4 489.9 C324.9 484.5 326.6 479.2 328.3 473.8 C329.9 468.5 331.6 463.1 333.4 457.9 C335.2 452.6 337.2 447.4 339.3 442.2 C341.3 437.0 343.2 431.8 345.4 426.7 C347.7 421.6 350.2 416.6 352.7 411.6 C355.1 406.6 357.5 401.6 360.1 396.6 C362.7 391.7 365.5 386.8 368.3 381.9 C371.0 377.0 373.7 372.1 376.6 367.3 C379.6 362.5 382.7 357.8 385.9 353.1 C389.2 348.4 392.6 343.7 396.0 339.2 C399.5 334.6 403.2 330.1 406.9 325.6 C410.6 321.1 414.1 316.5 418.0 312.1 C421.8 307.7 426.0 303.3 430.2 299.0 C434.4 294.8 438.8 290.8 443.2 286.8 C447.6 282.9 452.0 279.0 456.5 275.2 C460.9 271.4 465.4 267.7 470.0 264.2 C474.5 260.6 479.2 257.3 483.8 254.0 C488.5 250.7 493.1 247.3 497.9 244.4 C502.7 241.4 507.6 238.7 512.5 236.0 C517.4 233.3 522.3 230.4 527.3 228.0 C532.4 225.6 537.5 223.5 542.7 221.6 C548.0 219.6 553.5 218.4 558.6 216.3 C563.8 214.3 569.5 212.7 573.8 209.3 C578.1 205.8 580.4 199.9 584.3 195.5 C588.2 191.2 592.7 186.8 597.1 182.9 C601.6 179.0 607.0 174.3 610.8 172.3 C614.7 170.3 619.3 168.6 620.1 171.2 C620.9 173.7 617.2 182.0 615.7 187.4 C614.2 192.8 612.8 198.3 611.3 203.7 C609.8 209.1 606.8 217.0 606.7 219.9 C606.6 222.7 608.6 223.0 610.6 220.7 C612.7 218.4 616.3 211.0 619.0 206.0 C621.6 201.1 623.9 196.0 626.4 191.0 C628.8 186.0 631.5 181.1 633.7 176.0 C635.8 170.8 637.5 165.5 639.4 160.3 C641.3 155.0 643.2 144.5 645.1 144.5Z"/>
  <path fill="#F4E4BB" d="M530.0 250.7 C533.7 250.9 538.8 253.9 539.8 257.1 C540.7 260.4 537.6 266.1 535.7 270.2 C533.8 274.3 530.7 278.0 528.3 281.9 C525.9 285.8 523.6 289.8 521.2 293.7 C518.9 297.7 516.6 301.7 514.2 305.6 C511.8 309.6 509.1 313.4 506.7 317.3 C504.2 321.2 502.1 325.2 499.7 329.2 C497.3 333.1 494.8 337.0 492.4 340.9 C490.0 344.8 487.4 348.7 485.1 352.7 C482.8 356.7 480.8 360.7 478.5 364.7 C476.3 368.7 473.9 372.7 471.7 376.7 C469.5 380.7 467.5 384.8 465.3 388.8 C463.2 392.9 461.1 396.9 458.9 400.9 C456.8 405.0 454.6 409.0 452.5 413.1 C450.5 417.1 448.6 421.3 446.7 425.4 C444.7 429.5 442.8 433.7 440.9 437.8 C438.9 441.9 436.9 446.0 435.0 450.1 C433.1 454.3 431.4 458.5 429.5 462.6 C427.7 466.8 425.7 470.9 423.9 475.1 C422.2 479.3 420.6 483.6 418.9 487.8 C417.3 492.0 415.6 496.3 414.0 500.6 C412.4 504.8 410.8 509.1 409.3 513.4 C407.8 517.7 406.4 522.0 405.0 526.4 C403.6 530.7 402.2 535.0 400.9 539.5 C399.7 543.9 398.8 548.4 397.7 552.9 C396.6 557.4 395.5 561.8 394.4 566.3 C393.3 570.8 392.0 575.2 391.2 579.8 C390.3 584.3 390.1 589.1 389.4 593.8 C388.7 598.4 387.6 602.9 387.1 607.6 C386.5 612.3 386.6 617.2 386.2 622.0 C385.9 626.8 385.4 631.7 385.2 636.4 C384.9 641.1 384.7 645.5 384.6 650.2 C384.5 655.0 384.6 660.1 384.6 665.0 C384.6 669.9 384.6 674.9 384.6 679.8 C384.6 684.7 384.5 689.7 384.6 694.6 C384.7 699.4 385.2 704.2 385.4 709.0 C385.7 713.8 385.9 718.7 386.2 723.4 C386.6 728.2 387.0 733.0 387.4 737.7 C387.8 742.5 388.2 747.3 388.7 752.0 C389.2 756.7 389.6 761.4 390.3 766.1 C391.0 770.7 392.0 775.3 392.8 779.8 C393.6 784.4 394.3 789.1 395.2 793.6 C396.2 798.1 397.4 802.6 398.5 807.0 C399.6 811.5 400.5 816.0 401.8 820.5 C403.0 824.9 405.9 830.0 405.8 833.5 C405.8 837.1 403.9 841.9 401.4 841.5 C398.9 841.2 394.0 835.1 390.7 831.7 C387.4 828.2 384.3 824.5 381.4 820.7 C378.5 817.0 375.7 813.2 373.3 809.3 C370.8 805.4 368.8 801.3 366.6 797.3 C364.5 793.3 362.2 789.3 360.1 785.2 C358.1 781.2 356.2 777.0 354.4 772.8 C352.6 768.6 351.1 764.3 349.5 760.1 C347.9 755.8 346.1 751.6 344.6 747.3 C343.1 743.0 341.8 738.7 340.5 734.3 C339.3 729.8 338.3 725.3 337.1 720.9 C335.9 716.4 334.6 712.1 333.6 707.6 C332.5 703.1 331.5 698.6 330.7 694.0 C330.0 689.4 329.7 684.6 329.1 679.9 C328.5 675.2 327.6 670.6 327.1 665.9 C326.5 661.2 326.2 656.5 325.8 651.7 C325.5 646.9 325.3 642.1 325.0 637.2 C324.7 632.4 324.2 627.5 324.2 622.8 C324.2 618.1 324.9 613.8 325.0 609.0 C325.1 604.3 324.9 599.1 325.0 594.3 C325.1 589.4 325.4 584.6 325.8 579.8 C326.2 575.1 326.9 570.4 327.5 565.7 C328.0 561.0 328.7 556.4 329.4 551.7 C330.0 547.1 330.8 542.5 331.5 537.9 C332.3 533.3 333.0 528.6 334.0 524.1 C334.9 519.6 336.2 515.2 337.3 510.7 C338.3 506.2 339.4 501.7 340.5 497.3 C341.7 492.8 342.8 488.3 344.1 484.0 C345.3 479.6 346.7 475.2 348.2 470.9 C349.6 466.5 351.2 462.3 352.8 458.0 C354.3 453.7 356.0 449.5 357.7 445.3 C359.3 441.0 360.9 436.8 362.8 432.6 C364.6 428.4 366.6 424.3 368.6 420.2 C370.6 416.1 372.7 412.1 374.8 408.0 C376.9 404.0 379.2 400.0 381.3 396.0 C383.5 391.9 385.5 387.8 387.9 383.9 C390.2 379.9 392.8 376.1 395.4 372.2 C398.0 368.4 400.7 364.6 403.4 360.8 C406.1 357.0 408.8 353.2 411.7 349.4 C414.5 345.6 417.4 341.9 420.4 338.2 C423.4 334.6 426.5 330.9 429.7 327.3 C432.9 323.7 436.2 320.1 439.5 316.6 C442.9 313.2 446.2 309.8 449.6 306.5 C453.1 303.2 456.7 299.8 460.3 296.6 C463.9 293.4 467.6 290.4 471.3 287.3 C474.9 284.2 478.5 281.0 482.2 278.1 C485.9 275.1 489.8 272.5 493.6 269.9 C497.4 267.3 501.3 264.7 505.2 262.4 C509.2 260.0 513.1 257.5 517.2 255.6 C521.3 253.6 526.2 250.4 530.0 250.7Z"/>
  <circle fill="#3A2A14" cx="435.0" cy="639.0" r="23.3"/>
  <circle fill="#3A2A14" cx="607.9" cy="639.0" r="23.3"/>
  <path fill="none" stroke="#3A2A14" stroke-width="10.6" stroke-linecap="round" d="M494.9 667.2 Q521.8 695.7 548.7 667.2"/>
</svg>